<svg width="300" height="300" viewBox="0 0 300 300" fill="none" xmlns="http://www.w3.org/2000/svg">
<rect width="300" height="300" fill="white"/>
<g filter="url(#filter0_d_1_2)">
<path d="M96.0001 215.5C93.3928 262.303 96.2925 264.995 105.5 248C116.939 222.674 124 204.5 138.5 203C153 201.5 150.5 243 154 258C157.5 273 162.848 280.225 170.5 215.5L180.5 158.5C183.519 152.081 195.377 157.255 203 158.5C210.623 159.745 180.5 173 188 182C195.5 191 208 182 208 182C217.471 169.685 220.92 163.945 225 155C221.783 146.823 223 139.5 208 139.5C193 139.5 191.955 136.021 180.5 139.5C182.674 126.991 177.5 107 177.5 107C177.5 107 160.22 76.7051 138.5 76.5C114.281 80.6 105.862 89.1128 96.0001 110.5C91.7299 126.336 92.6358 131.728 96.0001 139.5C83.2892 136.758 76.7378 138.599 66 147.5C55.569 156.558 55.2231 162.315 58 173C60.3689 182.774 91.5 190.5 91.5 182C91.5 173.5 91.5 168.5 77.5 165.5C63.5 162.5 88.519 155.687 96.0001 165.5V215.5Z" fill="#F2ACEF" shape-rendering="crispEdges"/>
<path d="M96.0001 215.5C93.3928 262.303 96.2925 264.995 105.5 248C116.939 222.674 124 204.5 138.5 203C153 201.5 150.5 243 154 258C157.5 273 162.848 280.225 170.5 215.5L180.5 158.5C183.519 152.081 195.377 157.255 203 158.5C210.623 159.745 180.5 173 188 182C195.5 191 208 182 208 182C217.471 169.685 220.92 163.945 225 155C221.783 146.823 223 139.5 208 139.5C193 139.5 191.955 136.021 180.5 139.5C182.674 126.991 177.5 107 177.5 107C177.5 107 160.22 76.7051 138.5 76.5C114.281 80.6 105.862 89.1128 96.0001 110.5C91.7299 126.336 92.6358 131.728 96.0001 139.5C83.2892 136.758 76.7378 138.599 66 147.5C55.569 156.558 55.2231 162.315 58 173C60.3689 182.774 91.5 190.5 91.5 182C91.5 173.5 91.5 168.5 77.5 165.5C63.5 162.5 88.519 155.687 96.0001 165.5V215.5Z" stroke="black" stroke-width="3px" stroke-opacity="0.25" shape-rendering="crispEdges"/>
</g>
<path d="M123.5 116L131 109L138.5 116L131 121.5L123.5 116Z" fill="white" stroke="black" stroke-width="2px" stroke-opacity="0.5"/>
<path d="M142 116L149.5 109L157 116L149.5 121.5L142 116Z" fill="white" stroke="black" stroke-width="2px" stroke-opacity="0.5"/>
<circle cx="133" cy="115" r="2" fill="red" opacity="0.75"/>
<circle cx="152" cy="115" r="2" fill="red" opacity="0.75"/>
<path d="M124.5 138C124.5 138 131 127.5 140.5 127.5C150 127.5 156 138 156 138" stroke="black" stroke-width="2px" stroke-opacity="0.5"/>
<defs>
<filter id="filter0_d_1_2" x="56.0212" y="75.9996" width="169.522" height="196.712" filterUnits="userSpaceOnUse" color-interpolation-filters="sRGB">
<feFlood flood-opacity="0" result="BackgroundImageFix"/>
<feColorMatrix in="SourceAlpha" type="matrix" values="0 0 0 0 0 0 0 0 0 0 0 0 0 0 0 0 0 0 127 0" result="hardAlpha"/>
<feOffset dy="4"/>
<feComposite in2="hardAlpha" operator="out"/>
<feColorMatrix type="matrix" values="0 0 0 0 0 0 0 0 0 0 0 0 0 0 0 0 0 0 0.25 0"/>
<feBlend mode="normal" in2="BackgroundImageFix" result="effect1_dropShadow_1_2"/>
<feBlend mode="normal" in="SourceGraphic" in2="effect1_dropShadow_1_2" result="shape"/>
</filter>
</defs>
</svg>
